# xmcd
#
# Track frame offsets:
#	150
#	10709
#	21398
#	30877
#	43261
#	60345
#	73121
#	84618
#	96087
#	107262
#	117893
#	130790
#	143285
#	158292
#	172258
#	180597
#	197303
#	209211
#	227087
#	247573
#	267305
#
# Disc length: 3644 seconds
#
# Revision: 1
# Processed by: cddbd v1.5.2PL0 Copyright (c) Steve Scherf et al.
# Submitted via: audiograbber 1.83.01
#
DISCID=060e3a15
DTITLE=Brian Coll - 20 Greatest Hits
DYEAR=1900
DGENRE=
TTITLE0=Walking The Floor Over You
TTITLE1=Dear Hearts And Gentle People
TTITLE2=Anytime
TTITLE3=I Love You Because
TTITLE4=These Are My Mountains
TTITLE5=Broken Engagement
TTITLE6=The Old Folks At Home
TTITLE7=Highway To Nowhere
TTITLE8=Astoreen Bawn
TTITLE9=No One Will Ever Know
TTITLE10=Pretty Little Girl From Omagh
TTITLE11=Till I Waltz Again With You
TTITLE12=Old Bog Road
TTITLE13=That Old Big River Train
TTITLE14=Call Her Your Sweetheart
TTITLE15=Isle Of Innisfree
TTITLE16=I'll Never Take You Back Again
TTITLE17=Galway Shawl
TTITLE18=Face On The Bar Room Floor
TTITLE19=Give An Irish Girl To Me
TTITLE20=*advertisement*
EXTD=
EXTT0=
EXTT1=
EXTT2=
EXTT3=
EXTT4=
EXTT5=
EXTT6=
EXTT7=
EXTT8=
EXTT9=
EXTT10=
EXTT11=
EXTT12=
EXTT13=
EXTT14=
EXTT15=
EXTT16=
EXTT17=
EXTT18=
EXTT19=
EXTT20=
PLAYORDER=
